HIERARCHY
ROOT Hips
{
    OFFSET 0.000000 0.000000 0.000000
    CHANNELS 6 Xposition Yposition Zposition Zrotation Yrotation Xrotation
    JOINT LeftUpLeg
    {
        OFFSET 9.162498 -10.205075 3.799697
        CHANNELS 3 Zrotation Yrotation Xrotation
        JOINT LeftLeg
        {
            OFFSET 14.513953 -39.876781 0.000000
            CHANNELS 3 Zrotation Yrotation Xrotation
            JOINT LeftFoot
            {
                OFFSET 14.224848 -39.082561 0.000000
                CHANNELS 3 Zrotation Yrotation Xrotation
                JOINT LeftToeBase
                {
                    OFFSET 1.314863 -3.612473 11.865319
                    CHANNELS 3 Zrotation Yrotation Xrotation
                    End Site
                    {
                        OFFSET 0.000000 0.000000 0.000000
                    }
                }
            }
        }
    }
    JOINT RightUpLeg
    {
        OFFSET -8.357156 -10.205075 3.799697
        CHANNELS 3 Zrotation Yrotation Xrotation
        JOINT RightLeg
        {
            OFFSET -14.859335 -40.825722 0.000000
            CHANNELS 3 Zrotation Yrotation Xrotation
            JOINT RightFoot
            {
                OFFSET -14.380747 -39.510799 0.000000
                CHANNELS 3 Zrotation Yrotation Xrotation
                JOINT RightToeBase
                {
                    OFFSET -1.301994 -3.577195 11.975215
                    CHANNELS 3 Zrotation Yrotation Xrotation
                    End Site
                    {
                        OFFSET 0.000000 0.000000 0.000000
                    }
                }
            }
        }
    }
    JOINT Spine
    {
        OFFSET -0.118984 11.716251 -0.958476
        CHANNELS 3 Zrotation Yrotation Xrotation
        JOINT Spine1
        {
            OFFSET 0.286171 11.765131 -0.177291
            CHANNELS 3 Zrotation Yrotation Xrotation
            JOINT Neck1
            {
                OFFSET -0.605701 9.054070 1.770648
                CHANNELS 3 Zrotation Yrotation Xrotation
                JOINT Head
                {
                    OFFSET 0.474750 9.351585 -1.739717
                    CHANNELS 3 Zrotation Yrotation Xrotation
                    End Site
                    {
                        OFFSET 0.000000 0.000000 0.000000
                    }
                }
            }
            JOINT LeftShoulder
            {
                OFFSET 0.000000 0.000000 0.000000
                CHANNELS 3 Zrotation Yrotation Xrotation
                JOINT LeftArm
                {
                    OFFSET 19.886068 4.132773 -3.087148
                    CHANNELS 3 Zrotation Yrotation Xrotation
                    JOINT LeftForeArm
                    {
                        OFFSET 30.054285 -0.000000 -0.000000
                        CHANNELS 3 Zrotation Yrotation Xrotation
                        JOINT LeftHand
                        {
                            OFFSET 19.665203 -0.000000 -0.000000
                            CHANNELS 3 Zrotation Yrotation Xrotation
                            End Site
                            {
                                OFFSET 0.000000 0.000000 0.000000
                            }
                        }
                    }
                }
            }
            JOINT RightShoulder
            {
                OFFSET 0.000000 0.000000 0.000000
                CHANNELS 3 Zrotation Yrotation Xrotation
                JOINT RightArm
                {
                    OFFSET -19.290640 5.282707 -0.565512
                    CHANNELS 3 Zrotation Yrotation Xrotation
                    JOINT RightForeArm
                    {
                        OFFSET -30.117897 -0.000000 -0.000000
                        CHANNELS 3 Zrotation Yrotation Xrotation
                        JOINT RightHand
                        {
                            OFFSET -20.553181 -0.000000 -0.000000
                            CHANNELS 3 Zrotation Yrotation Xrotation
                            End Site
                            {
                                OFFSET 0.000000 0.000000 0.000000
                            }
                        }
                    }
                }
            }
        }
    }
}
MOTION
Frames: 16
Frame Time: 0.016667
17.266785 92.280861 -20.175909 3.316300 -39.247200 3.921003 -18.455208 -6.297603 -11.005898 3.204300 11.018704 32.342995 1.433701 1.351201 -23.153013 0.594200 -4.935102 -13.723504 12.195204 11.401198 -16.599007 -5.105501 -13.501601 41.276600 -1.661801 10.209101 -23.166510 -0.146500 2.466501 -6.796802 -5.249977 -2.465188 2.105763 5.939502 -0.686900 -0.873001 -5.651883 -4.568917 3.828577 3.546903 -1.745701 10.716703 0.000000 0.000000 0.000000 -88.647606 0.428701 46.529099 109.652634 -58.489098 -76.933334 0.000000 0.000000 5.862900 0.000000 0.000000 0.000000 84.689507 -7.168605 34.882721 -120.680725 56.125809 -86.224724 0.000000 0.000000 15.908506 
17.258883 92.281418 -20.162926 3.282502 -39.243301 3.950900 -18.430605 -6.257203 -11.030604 3.204504 11.018906 32.343830 1.431300 1.411700 -23.158300 0.624000 -5.054802 -14.064998 12.229603 11.448504 -16.568100 -5.102603 -13.498504 41.264221 -1.657101 10.191901 -23.132704 -0.147000 2.470600 -6.808100 -5.245742 -2.486399 2.105564 5.907800 -0.694900 -0.839500 -5.578042 -4.513772 3.787233 3.560600 -1.727700 10.667400 0.000000 0.000000 0.000000 -88.615913 0.398104 46.484196 109.687408 -58.483604 -76.963005 0.000000 0.000000 5.926500 0.000000 0.000000 0.000000 84.737701 -7.156901 34.917900 -120.743446 56.108639 -86.276741 0.000000 0.000000 15.877399 
17.256060 92.276352 -20.150509 3.260102 -39.256527 3.995602 -18.414900 -6.257002 -11.058406 3.205802 11.021008 32.350708 1.426000 1.443600 -23.129299 0.600400 -4.960402 -13.795603 12.240309 11.424108 -16.615211 -5.102601 -13.498400 41.264000 -1.659201 10.139104 -23.143299 -0.153100 2.520901 -6.947699 -5.237807 -2.477405 2.079584 5.928502 -0.687900 -0.916000 -5.627851 -4.429269 3.880872 3.601001 -1.708701 10.640408 0.000000 0.000000 0.000000 -88.629250 0.492401 46.512417 109.764198 -58.471317 -77.028412 0.000000 0.000000 5.885000 0.000000 0.000000 0.000000 84.705902 -7.288303 34.924904 -120.854309 56.078014 -86.368813 0.000000 0.000000 15.794401 
17.244772 92.281990 -20.143171 3.308400 -39.237701 3.957000 -18.456596 -6.341699 -11.012996 3.206302 11.021704 32.353222 1.430200 1.445500 -23.163000 0.581400 -4.882401 -13.573407 12.215103 11.497404 -16.558006 -5.102800 -13.498701 41.264999 -1.665501 10.132504 -23.186005 -0.139800 2.409501 -6.638900 -5.309361 -2.543542 2.082368 5.938000 -0.705800 -0.940600 -5.599521 -4.368786 3.935243 3.610203 -1.692701 10.627907 0.000000 0.000000 0.000000 -88.593086 0.552597 46.454994 109.786125 -58.467827 -77.047127 0.000000 0.000000 5.887200 0.000000 0.000000 0.000000 84.725510 -7.305496 35.009506 -120.889626 56.068230 -86.398117 0.000000 0.000000 15.732007 
17.239126 92.275780 -20.144863 3.320702 -39.233707 3.987801 -18.459808 -6.364800 -11.072705 3.216001 11.036704 32.403816 1.431600 1.479100 -23.188000 0.599900 -4.958200 -13.789504 12.204803 11.534305 -16.588697 -5.101401 -13.497000 41.258827 -1.671000 10.088401 -23.220602 -0.143100 2.437600 -6.716802 -5.354697 -2.533789 2.061519 6.024102 -0.699100 -1.001001 -5.668293 -4.425413 3.975013 3.633798 -1.711700 10.605199 0.000000 0.000000 0.000000 -88.624619 0.561702 46.448513 109.778801 -58.469017 -77.040909 0.000000 0.000000 5.898003 0.000000 0.000000 0.000000 84.656105 -7.353204 35.000519 -120.913696 56.061489 -86.417992 0.000000 0.000000 15.710200 
17.239691 92.281418 -20.136961 3.240800 -39.159306 4.076100 -18.373302 -6.290500 -11.195704 3.230399 11.058900 32.478897 1.431900 1.386300 -23.152596 0.626600 -5.065102 -14.094501 12.274205 11.511005 -16.622913 -5.098599 -13.494000 41.246803 -1.656200 10.104201 -23.120304 -0.122600 2.257601 -6.218000 -5.260516 -2.585958 2.038215 6.021900 -0.713700 -0.992200 -5.685927 -4.473674 3.958328 3.690800 -1.729000 10.567901 0.000000 0.000000 0.000000 -88.710327 0.579203 46.464607 109.789825 -58.467220 -77.050339 0.000000 0.000000 5.872302 0.000000 0.000000 0.000000 84.651199 -7.326200 34.967899 -120.918488 56.060207 -86.421989 0.000000 0.000000 15.759799 
17.237434 92.288200 -20.123415 3.187800 -39.211212 4.097700 -18.349810 -6.358103 -11.139807 3.233500 11.063798 32.495399 1.437401 1.479000 -23.233507 0.619000 -5.034901 -14.008100 12.314005 11.555107 -16.585300 -5.096703 -13.491803 41.238701 -1.665401 10.106604 -23.183811 -0.136100 2.377801 -6.550903 -5.206186 -2.548953 2.039238 6.011206 -0.703300 -0.986501 -5.723372 -4.485151 3.990357 3.744202 -1.737901 10.558406 0.000000 0.000000 0.000000 -88.693810 0.560696 46.459328 109.806244 -58.464611 -77.064339 0.000000 0.000000 5.740304 0.000000 0.000000 0.000000 84.655800 -7.273503 34.932194 -120.849518 56.079338 -86.364845 0.000000 0.000000 15.828000 
17.230095 92.275780 -20.098015 3.148303 -39.199738 4.165500 -18.327999 -6.479802 -11.126606 3.231200 11.060201 32.483101 1.437300 1.536000 -23.255707 0.615400 -5.020700 -13.967700 12.328699 11.516104 -16.638700 -5.095904 -13.490905 41.235203 -1.669100 10.061998 -23.206095 -0.157600 2.557600 -7.049297 -5.154513 -2.545315 1.969363 5.954500 -0.706100 -0.900100 -5.668230 -4.469155 3.914570 3.749198 -1.732001 10.568200 0.000000 0.000000 0.000000 -88.670708 0.472105 46.492001 109.793388 -58.466625 -77.053375 0.000000 0.000000 5.778800 0.000000 0.000000 0.000000 84.707901 -7.191800 34.917500 -120.822235 56.086830 -86.342155 0.000000 0.000000 15.869501 
17.227839 92.272400 -20.101402 3.019702 -39.162498 4.261199 -18.202911 -6.528501 -11.162304 3.236700 11.068700 32.511902 1.436500 1.524900 -23.245102 0.578500 -4.870503 -13.539396 12.448503 11.504498 -16.641001 -5.088398 -13.482696 41.203300 -1.672802 10.018605 -23.228617 -0.150800 2.502100 -6.895502 -5.061773 -2.630392 1.987300 5.906203 -0.730800 -0.896200 -5.576504 -4.404090 3.845594 3.694000 -1.706600 10.581400 0.000000 0.000000 0.000000 -88.596214 0.448801 46.448399 109.789825 -58.467220 -77.050339 0.000000 0.000000 5.589000 0.000000 0.000000 0.000000 84.744415 -7.170105 34.994099 -120.847931 56.079712 -86.363434 0.000000 0.000000 15.791500 
17.215420 92.276909 -20.083340 3.024401 -39.153919 4.204805 -18.212500 -6.500900 -11.100800 3.242700 11.078008 32.543400 1.438800 1.532400 -23.266109 0.615900 -5.022802 -13.973608 12.463501 11.488000 -16.543596 -5.081099 -13.474505 41.171700 -1.669400 10.082204 -23.209801 -0.139400 2.406101 -6.629301 -5.071008 -2.550918 2.041373 5.826404 -0.710901 -0.866000 -5.484741 -4.467719 3.810531 3.714902 -1.725301 10.589504 0.000000 0.000000 0.000000 -88.505432 0.397901 46.522911 109.802605 -58.465191 -77.061211 0.000000 0.000000 5.632700 0.000000 0.000000 0.000000 84.867607 -7.123295 34.904915 -120.748199 56.107201 -86.280708 0.000000 0.000000 15.913799 
17.214857 92.279732 -20.098015 2.997801 -39.128326 4.267003 -18.166004 -6.529902 -11.171900 3.248502 11.086803 32.573124 1.447900 1.450800 -23.304291 0.595100 -4.938702 -13.733806 12.501602 11.589202 -16.538412 -5.074201 -13.466902 41.142391 -1.677401 9.979302 -23.258017 -0.130800 2.331499 -6.422600 -5.066258 -2.593544 2.027103 5.853102 -0.722400 -0.871500 -5.506049 -4.431778 3.808259 3.741000 -1.718501 10.612005 0.000000 0.000000 0.000000 -88.531784 0.416592 46.508003 109.824516 -58.461613 -77.079926 0.000000 0.000000 5.602302 0.000000 0.000000 0.000000 84.874405 -7.084400 34.949219 -120.685493 56.124496 -86.228699 0.000000 0.000000 16.021601 
17.209776 92.291580 -20.071487 2.944800 -39.207012 4.282399 -18.154209 -6.490702 -11.127708 3.246502 11.083805 32.562916 1.451100 1.536400 -23.364098 0.646300 -5.142800 -14.316200 12.529703 11.562404 -16.529104 -5.070100 -13.462301 41.124805 -1.657601 10.113405 -23.130695 -0.118500 2.218900 -6.111102 -5.013370 -2.563285 2.025042 5.815304 -0.714000 -0.867601 -5.519469 -4.415700 3.811005 3.713100 -1.709200 10.552804 0.000000 0.000000 0.000000 -88.552994 0.452807 46.463196 109.788033 -58.467541 -77.048729 0.000000 0.000000 5.605201 0.000000 0.000000 0.000000 84.841499 -7.134102 35.040806 -120.757927 56.104641 -86.288841 0.000000 0.000000 15.922400 
17.203568 92.272400 -20.045523 2.957201 -39.237701 4.285702 -18.178301 -6.544402 -11.081701 3.236000 11.067604 32.508305 1.447500 1.572501 -23.351007 0.584700 -4.896003 -13.612103 12.503903 11.596801 -16.534502 -5.073502 -13.466101 41.139317 -1.661901 10.135408 -23.161512 -0.114900 2.185300 -6.018096 -5.009688 -2.557586 1.968125 5.800604 -0.714200 -0.818900 -5.514923 -4.350311 3.859133 3.733800 -1.696400 10.627503 0.000000 0.000000 0.000000 -88.578102 0.440101 46.441895 109.797134 -58.466003 -77.056534 0.000000 0.000000 5.607402 0.000000 0.000000 0.000000 84.831398 -7.148206 35.054203 -120.812508 56.089523 -86.334129 0.000000 0.000000 15.945200 
17.203568 92.275780 -20.038750 3.066604 -39.243698 4.175000 -18.284302 -6.566002 -10.998606 3.229999 11.058300 32.476799 1.450300 1.569000 -23.371401 0.563700 -4.808699 -13.363800 12.415301 11.630899 -16.468006 -5.074200 -13.466800 41.142101 -1.673201 10.067207 -23.234716 -0.127400 2.300501 -6.336898 -5.113083 -2.601880 2.044574 5.843904 -0.727600 -0.827200 -5.584081 -4.300553 3.834667 3.732603 -1.680700 10.587306 0.000000 0.000000 0.000000 -88.572914 0.420796 46.411629 109.883064 -58.452221 -77.129753 0.000000 0.000000 5.637198 0.000000 0.000000 0.000000 84.777649 -7.133607 35.141716 -120.835022 56.083336 -86.352829 0.000000 0.000000 15.906901 
17.195665 92.284813 -20.028025 2.959303 -39.321003 4.293800 -18.196699 -6.565000 -11.035500 3.228101 11.055497 32.467400 1.448400 1.610700 -23.373198 0.581800 -4.884202 -13.578606 12.488800 11.624396 -16.551098 -5.067503 -13.459400 41.113415 -1.669001 10.142305 -23.210915 -0.120300 2.235602 -6.157400 -5.013350 -2.488482 1.982098 5.819400 -0.695700 -0.795700 -5.586737 -4.337998 3.792778 3.728900 -1.690501 10.596704 0.000000 0.000000 0.000000 -88.564713 0.395092 46.514225 109.875755 -58.453423 -77.123558 0.000000 0.000000 5.608600 0.000000 0.000000 0.000000 84.746910 -7.167906 35.078209 -120.918488 56.060207 -86.421989 0.000000 0.000000 15.874200 
17.189455 92.290451 -20.013914 3.008499 -39.345711 4.276700 -18.253599 -6.452803 -11.083499 3.232202 11.061799 32.488407 1.449200 1.658700 -23.399609 0.624300 -5.056100 -14.068600 12.441301 11.618402 -16.516203 -5.054100 -13.444500 41.055901 -1.661501 10.248403 -23.167212 -0.105700 2.096801 -5.773202 -5.091912 -2.597677 1.964605 5.871702 -0.724300 -0.841500 -5.633588 -4.234809 3.841880 3.626998 -1.654499 10.629296 0.000000 0.000000 0.000000 -88.590332 0.517800 46.332710 109.952400 -58.441013 -77.188805 0.000000 0.000000 5.672803 0.000000 0.000000 0.000000 84.709229 -7.204900 35.233406 -120.942505 56.053509 -86.442009 0.000000 0.000000 15.847000 
